<?xml version="1.0" encoding="UTF-8"?><svg id="Layer_2" xmlns="http://www.w3.org/2000/svg" viewBox="0 0 728.9 728.9"><defs><style>.cls-1{stroke-width:26px;}.cls-1,.cls-2,.cls-3,.cls-4{stroke:#221f20;stroke-miterlimit:10;}.cls-1,.cls-3,.cls-4{fill:none;}.cls-2{fill:#221f20;}.cls-2,.cls-4{stroke-width:8px;}.cls-3{stroke-width:10px;}</style></defs><g id="Layer_1-2"><path class="cls-2" d="m356.55,344.75l13.7,13.7,212.02-212.02c-.39-.39-.78-.76-1.17-1.14l-101.9,90.52-122.65,108.95Z"/><path class="cls-4" d="m383.94,372.14l108.95-122.65,90.52-101.9c-.38-.39-.76-.78-1.15-1.17l-212.02,212.02,13.7,13.7Z"/><path class="cls-2" d="m363.92,6.78l-6.39,49.57c2.12-.05,4.25-.08,6.39-.08V6.78Z"/><path class="cls-2" d="m317.81,364.63h46.1V56.27c-2.13,0-4.26.03-6.39.08l-16.66,129.36-23.05,178.93Z"/><path class="cls-4" d="m370.3,56.34l-6.38-49.56v49.49c.18,0,.35,0,.53,0,1.96,0,3.9.04,5.85.07Z"/><path class="cls-4" d="m410.02,364.63l-23.05-178.93-16.67-129.37c-1.95-.04-3.89-.07-5.85-.07-.18,0-.36,0-.53,0v308.37h46.1Z"/><path class="cls-2" d="m6.06,364.45l50.28,6.48c-.04-2.16-.08-4.31-.08-6.48H6.06Z"/><path class="cls-2" d="m363.92,410.55v-46.1H56.26c0,2.17.04,4.32.08,6.48l128.64,16.57,178.93,23.05Z"/><path class="cls-4" d="m6.06,364.45h50.2c0-2.17.04-4.32.08-6.48l-50.28,6.48Z"/><path class="cls-4" d="m363.92,318.35l-178.93,23.05-128.64,16.57c-.04,2.16-.08,4.31-.08,6.48h307.65v-46.1Z"/><path class="cls-2" d="m363.92,672.63v51.67l6.67-51.74c-2.04.04-4.08.08-6.13.08-.18,0-.36,0-.53,0Z"/><path class="cls-2" d="m410.02,366.44h-46.1v306.19c.18,0,.36,0,.53,0,2.05,0,4.09-.04,6.13-.08l16.39-127.19,23.05-178.93Z"/><path class="cls-4" d="m363.92,724.3v-51.67c-2.23,0-4.45-.03-6.67-.08l6.67,51.75Z"/><path class="cls-4" d="m317.81,366.44l23.05,178.93,16.38,127.17c2.22.05,4.44.08,6.67.08v-306.19h-46.1Z"/><path class="cls-2" d="m672.56,358.11c.04,2.11.08,4.22.08,6.34h49.14l-49.22-6.34Z"/><path class="cls-2" d="m542.84,341.4l-178.93-23.05v46.1h308.72c0-2.12-.04-4.23-.08-6.34l-129.71-16.71Z"/><path class="cls-4" d="m721.77,364.45h-49.14c0,2.12-.04,4.23-.08,6.34l49.22-6.34Z"/><path class="cls-4" d="m363.92,410.55l178.93-23.05,129.71-16.71c.04-2.11.08-4.22.08-6.34h-308.72v46.1Z"/><path class="cls-2" d="m350.22,366.44l13.7-13.7-211.73-211.73c-.4.38-.8.77-1.2,1.15l90.28,101.63,108.95,122.65Z"/><path class="cls-4" d="m377.61,339.05l-122.65-108.95-101.56-90.22c-.4.38-.82.75-1.22,1.14l211.73,211.73,13.7-13.7Z"/><path class="cls-2" d="m377.61,378.15l-13.7-13.7-217.65,217.65c.27.28.55.55.83.82l107.87-95.83,122.65-108.95Z"/><path class="cls-4" d="m350.22,350.75l-108.95,122.65-95.82,107.87c.27.28.54.56.82.83l217.65-217.65-13.7-13.7Z"/><path class="cls-2" d="m492.89,473.4l-108.95-122.65-13.7,13.7,214.99,214.99c.32-.33.65-.66.97-.99l-93.31-105.04Z"/><path class="cls-4" d="m370.25,364.45l-13.7,13.7,122.65,108.95,105.07,93.33c.32-.33.65-.66.97-.99l-214.99-214.99Z"/><path class="cls-3" d="m364.45,5C165.93,5,5,165.93,5,364.45s160.93,359.45,359.45,359.45,359.45-160.93,359.45-359.45S562.97,5,364.45,5Zm0,667.64c-170.21,0-308.19-137.98-308.19-308.19S194.24,56.26,364.45,56.26s308.19,137.98,308.19,308.19-137.98,308.19-308.19,308.19Z"/><circle class="cls-3" cx="364.45" cy="364.45" r="308.19"/><circle class="cls-1" cx="367.25" cy="367.69" r="308.19"/></g></svg>